<svg xmlns="http://www.w3.org/2000/svg" xmlns:xlink="http://www.w3.org/1999/xlink" viewBox="0 0 5593.8188 3286.4281"><defs><style>.cls-1,.cls-5,.cls-6,.cls-7{fill-rule:evenodd;}.cls-2,.cls-7{fill:#dbdbde;}.cls-3{fill:url(#linear-gradient);}.cls-4{fill:url(#linear-gradient-2);}.cls-5{fill:#b8babc;}.cls-6{isolation:isolate;}</style><linearGradient id="linear-gradient" x1="2197.2697" y1="1234.9553" x2="5489.2697" y2="2878.9553" gradientUnits="userSpaceOnUse"><stop offset="0.3547" stop-color="#ff1a00" stop-opacity="0.8"/><stop offset="1"/></linearGradient><linearGradient id="linear-gradient-2" x1="1353.4888" y1="1718.8496" x2="3550.5811" y2="1718.8496" gradientUnits="userSpaceOnUse"><stop offset="0.33" stop-color="#ffff3e" stop-opacity="0.8"/><stop offset="1"/></linearGradient></defs><title>MNVLogo</title><g id="Shadow"><path class="cls-1" d="M6545.5107,1425.8887c-37.41-98.8926-93.0488-195.9322-165.37-288.4239-70.3369-89.9541-157.1855-176.5468-258.1318-257.373-99.3262-79.5288-213.2334-154.2261-338.5557-222.0166-124.8252-67.522-262.0674-128.7832-407.915-182.082-146.91-53.688-303.8945-99.7837-466.5908-137.0078C4571.0127,261.668,4212.1655,222.4648,3842.374,222.4648S3113.7354,261.668,2775.8,338.9854c-162.6958,37.2241-319.68,83.32-466.5908,137.0078-77.6807,28.3877-152.919,59.0351-225.1416,91.6836,25.8027-51.0655,54.6875-101.2051,84.269-148.4327-4.0439,2.1036-12.583,7.8926-16.48,10.2608a1578.6169,1578.6169,0,0,0-368.7226,296.6074c-79.47,48.6943-153.2666,100.2314-220.3945,153.98-100.9468,80.8262-187.795,167.4189-258.1324,257.373-72.3213,92.4917-127.9594,189.5313-165.37,288.4239-38.7,102.3-58.3218,207.7036-58.3218,313.2832s19.6221,210.9843,58.3218,313.2842c37.41,98.8916,93.0483,195.9316,165.37,288.4228,70.3374,89.9541,157.1856,176.5469,258.1324,257.3731q23.5752,18.8759,48.2353,37.38a1576.08,1576.08,0,0,0,262.9883,316.0625,1618.847,1618.847,0,0,0,911.3452,421.7442,1591.1012,1591.1012,0,0,0,822.0386-122.9063q116.67,5.3351,235.0273,5.3467c369.7915,0,728.6387-39.2031,1066.5733-116.52,162.6963-37.2236,319.6806-83.32,466.5908-137.0078,118.5791-43.334,231.47-91.9317,336.623-144.877,2.9561,4.336,8.1993,7.3291,17.4424,11.627,32.916,15.3008,118.2188,34.4775,137.5694,33.99,104.1357-2.6191,148.8193-63.4316,170.3154-162.5742a614.9734,614.9734,0,0,0,11.9785-86.9326q37.437-27.2388,72.542-55.332c100.9463-80.8262,187.7949-167.419,258.1318-257.3731,72.3213-92.4912,127.96-189.5312,165.37-288.4228,38.6993-102.3,58.3213-207.7041,58.3213-313.2842S6584.21,1528.1885,6545.5107,1425.8887Z" transform="translate(-1010.0132 -97.6777)"/></g><g id="Oval_copy" data-name="Oval copy"><path d="M6474.6084,1301.1016c-37.41-98.8926-93.0488-195.9322-165.37-288.4239-70.3369-89.9541-157.1856-176.5468-258.1319-257.373-99.3261-79.5288-213.2334-154.2261-338.5556-222.0166-124.8252-67.522-262.0674-128.7832-407.9151-182.082-146.91-53.688-303.8945-99.7837-466.5908-137.0079C4500.11,136.8809,4141.2632,97.6777,3771.4717,97.6777S3042.833,136.8809,2704.8979,214.1982c-162.6958,37.2242-319.68,83.32-466.5908,137.0079-77.6806,28.3876-152.9189,59.0351-225.1416,91.6835,25.8028-51.0654,54.6875-101.205,84.2691-148.4326-4.044,2.1035-12.583,7.8926-16.4805,10.2608a1578.6175,1578.6175,0,0,0-368.7227,296.6074c-79.47,48.6943-153.2666,100.2314-220.3945,153.98-100.9468,80.8262-187.7949,167.4189-258.1323,257.373-72.3213,92.4917-127.9595,189.5313-165.37,288.4239-38.7,102.3-58.3218,207.7036-58.3218,313.2837s19.6221,210.9838,58.3218,313.2836c37.41,98.8916,93.0483,195.9317,165.37,288.4229,70.3374,89.9541,157.1855,176.5469,258.1323,257.373q23.5752,18.876,48.2354,37.38a1576.0763,1576.0763,0,0,0,262.9882,316.0625,1618.8473,1618.8473,0,0,0,911.3453,421.7442,1591.1009,1591.1009,0,0,0,822.0385-122.9063q116.6712,5.3351,235.0274,5.3467c369.7915,0,728.6387-39.2031,1066.5732-116.52,162.6963-37.2236,319.6807-83.32,466.5908-137.0078,101.8526-37.2207,199.501-78.33,291.6612-122.7383.789,1.4795,1.6426,2.9551,2.58,4.4219,11.2773,17.6347,28.4716,25.6289,38.7441,30.4052,36.6172,17.0215,129.2715,39.4073,159.9082,38.6358,63.0908-1.5869,113.8662-21.9092,150.9141-60.4024,20.24-21.0293,36.51-47.6425,49.1562-80.5166a157.0628,157.0628,0,0,0,130.7676,69.3321c86.458,0,156.5469-68.9541,156.5469-154.0127s-70.0889-154.0117-156.5469-154.0117a158.2077,158.2077,0,0,0-62.3516,12.7128c94.6035-77.3544,176.375-159.8066,243.2227-245.2978,72.3213-92.4912,127.96-189.5313,165.37-288.4229,38.6992-102.3,58.3213-207.7041,58.3213-313.2836S6513.3076,1403.4014,6474.6084,1301.1016Z" transform="translate(-1010.0132 -97.6777)"/></g><g id="Reg_Mark_copy" data-name="Reg Mark copy"><path class="cls-2" d="M6094.5127,2540.4814a164.92,164.92,0,0,1,30.3047-2.7226c16.8769,0,27.9433,3.2676,35.5654,10.1631,5.9893,5.2607,9.6172,13.6093,9.6172,23.2256,0,15.9687-10.3428,26.6748-23.0439,31.03v.543c9.2539,3.2676,14.88,11.9766,17.9628,24.6787,3.9922,17.0586,6.8965,28.8526,9.2549,33.57h-16.3291c-1.997-3.4482-4.7177-13.9717-7.9843-29.2138-3.6309-16.876-10.3448-23.2286-24.6817-23.7715h-14.875V2660.97h-15.791Zm15.791,55.5264h16.1484c16.8731,0,27.5792-9.2549,27.5792-23.2256,0-15.7861-11.4327-22.6826-28.126-22.6826-7.62,0-12.8809.7256-15.6016,1.4522Z" transform="translate(-1010.0132 -97.6777)"/><path class="cls-2" d="M6020.6123,2602.7051a105.689,105.689,0,1,0,105.69-105.6895A105.809,105.809,0,0,0,6020.6123,2602.7051Zm14.4,0a91.2886,91.2886,0,1,1,91.2891,91.2881A91.3925,91.3925,0,0,1,6035.0127,2602.7051Z" transform="translate(-1010.0132 -97.6777)"/></g><g id="Oval"><ellipse class="cls-3" cx="2761.4584" cy="1516.7073" rx="2711.4583" ry="1466.7071"/></g><g id="Layer_1" data-name="Layer 1"><path d="M2115.4307,246.4668c-4.044,2.1035-12.583,7.8926-16.48,10.2607C1477.5967,619.0918,1197.2891,1338.7681,1360.84,2000.3a1576.1947,1576.1947,0,0,0,460.2168,778.6172,1618.8467,1618.8467,0,0,0,911.3453,421.7441,1591.093,1591.093,0,0,0,959.3242-191.0586,1369.9315,1369.9315,0,0,1-927.3931-327.5449A1245.3866,1245.3866,0,0,1,2399.1563,2205.24a104.5613,104.5613,0,0,1-11.0127-36.96,160.4525,160.4525,0,0,0-15.8384-92.35q-28.4436-51.4176-60.3858-100.7823c-.0727-.1123-.1455-.2246-.2143-.3281q18.1062-4.6641,35.7295-10.9062a356.7786,356.7786,0,0,0,44.5771-18.3135,211.3628,211.3628,0,0,0,83.6035-67.55,54.9276,54.9276,0,0,0-.0459-60.209,83.2122,83.2122,0,0,0-22.497-18.9,66.1134,66.1134,0,0,0-11.8106-5.5986,451.4512,451.4512,0,0,0-48.5122-13.0391,410.8248,410.8248,0,0,1-128.8628-43.9717c-37.3379-23.1728-73.62-56.2734-102.4365-89.3105a1070.3489,1070.3489,0,0,1-150.023-236.1807,1181.5938,1181.5938,0,0,1-106.3007-389.8935,1091.1956,1091.1956,0,0,1,84.312-535.6739c33.8867-81.6484,79.0674-163.89,125.9922-238.8066Z" transform="translate(-1010.0132 -97.6777)"/><path class="cls-4" d="M1695.7524,2183.3477s.1714-.0459.5-.1368A247.2244,247.2244,0,0,0,1892.62,2051.8945c.2115.2325.4761.5235.7827.8643A467.9293,467.9293,0,0,0,2112.5854,2173.73a342.2045,342.2045,0,0,0,175.7955-5.2412,123.9451,123.9451,0,0,0,67.498-83.4053q.3735-.936.7041-1.7744a164.8113,164.8113,0,0,1,11.6924,32.8613,76.8235,76.8235,0,0,1-14.1279,73.3789c-21.564,28.3565-57.8692,44.3418-98.7725,50.6475a436.51,436.51,0,0,1-217.0957-35.4014c-.5479-.1826-.8369-.2783-.8369-.2783a31.8791,31.8791,0,0,0,0,10.1006c.0039.0156.0078.0371.0146.0576a347.195,347.195,0,0,0,353.64,17.625,1404.9921,1404.9921,0,0,0,1159.4844,789.5859c-1.292.6895-3.3936,1.8038-6.1094,3.2295A1741.88,1741.88,0,0,1,2827.26,3140.7373c-655.4727-43.207-1215.8535-487.8086-1406.8619-1116.5264-201.8227-653.9741,63.4131-1368.16,654.2867-1729.3213.0693-.0419.1372-.0839.206-.1254-272.8271,421.1987-242.99,970.2661,73.8819,1359.4233,18.0185,21.9062,35.7583,40.1631,55.9961,56.7734a336.1073,336.1073,0,0,0,141.5293,72.9043q31.062,6.4293,62.061,13.1475a181.9132,181.9132,0,0,1,31.5957,11.65,82.81,82.81,0,0,1,15.58,12.8428,33.6732,33.6732,0,0,1,6.9092,30.3564,56.6565,56.6565,0,0,1-7.1553,21.1279,150.307,150.307,0,0,1-51.2725,41.2735c-63.4013,32.94-167.9922,50.789-215.4443,45.3232-38.6748-4.4521-91.3-27.2969-81.58-62.5312,3.0527-11.0782,13.0244-25.1641,12.0933-31.2071-.5591-3.6289-8.4029-3.6289-13.1241,0-10.2006,7.8428-23.2329,32.6075-23.16,45.36.104,18.7822,8.98,54.0683,9.07,54.4238a801.8884,801.8884,0,0,1-144.3144-18.3047q-21.1743-4.9746-42.3428-9.9883a60.6259,60.6259,0,0,1-32.292-32.6982,200.7718,200.7718,0,0,0-68.4692-80.3828c-6.6822-4.1318-12.4859,6.3349-5.4458,9.8135a194.8457,194.8457,0,0,1,74.4209,137.9795,126.74,126.74,0,0,1-23.5381,97.6982,340.08,340.08,0,0,1-154.08,107.999,4.3737,4.3737,0,0,0-.0562.7608v4.8379Z" transform="translate(-1010.0132 -97.6777)"/><path d="M1768.2148,1249.4268a169.3293,169.3293,0,0,1-116.6274,167.83l.01-.0024q-7.5213,2.6786-14.8536,5.8535a6.677,6.677,0,0,0,.7154,10.8911,20.8911,20.8911,0,0,0,10.729,2.4092,185.9252,185.9252,0,0,0,166.6523-101.0288,28.1629,28.1629,0,0,0,.8208-23.0308,356.65,356.65,0,0,0-47.2387-62.69c-.1377-.1519-.2081-.2314-.2081-.2314Z" transform="translate(-1010.0132 -97.6777)"/><path d="M1870.8477,1633.3291q70.1441,25.7271,138.7656,55.3462a27.359,27.359,0,0,0,8.0156,2.4238,3.133,3.133,0,0,0,2.8779-2.7021c3.336-10.794-26.6084-34.2368-40.518-47.8218-19.4751-19.0205-34.2173-53.87-51.4038-80.13-24.878-38.0146-63.5938-66.2129-105.833-86.1777-35.6685-16.86-99.7349-30.273-119.44,1.5107-19.5488,31.5288-10.4624,59.5581,7.5606,101.2979,6.5439,15.1562,15.1162,33.2617,15.1162,33.2617s-19.6885,8.206-24.188,18.6269c-2.6665,6.1719,0,13.1241,0,13.1241a265.1237,265.1237,0,0,1,169.0474-8.76Z" transform="translate(-1010.0132 -97.6777)"/><path class="cls-2" d="M1792.7607,1480.5991c39.6094,11.4312,82.8291,44.4121,104.0733,70.7749,4.6963,5.8272,19.2519,25.4561,27.9839,42.0674a44.81,44.81,0,0,1,6.82,29.9917c-.0181.33-.0288.5122-.0288.5122l-111.8809-22.9814s.0108-.0811.03-.2349a112.5512,112.5512,0,0,0-58.54-94.8271,142.9914,142.9914,0,0,1-32.1827-19.733.6827.6827,0,0,1-.0205-.11c-.0053-.0132-.0053-.0279-.0093-.04a6.2927,6.2927,0,0,1,3.7457-7.4532,133.0478,133.0478,0,0,1,60.0087,2.0337Z" transform="translate(-1010.0132 -97.6777)"/><path class="cls-2" d="M2080.2441,2040.7949a322.7346,322.7346,0,0,1-169.2666-63.5273,805.3031,805.3031,0,0,0,365.08,10.6377c9.3433-.9649,19.1411-.2207,25.9575,6.5947,0,0,10.9356,18.8291,11.1065,19a491.9388,491.9388,0,0,1-232.877,27.2949Z" transform="translate(-1010.0132 -97.6777)"/><path class="cls-2" d="M2046.5142,2107.7529s.4692.0537,1.354.1543a593.9488,593.9488,0,0,0,279.9121-8.9658c.603-.1084,1.0312-.1826,1.26-.2246a71.9378,71.9378,0,0,1-45.958,46.5322,328.2793,328.2793,0,0,1-236.5468-30.1347,1.0253,1.0253,0,0,1-.021-.1036,25.2569,25.2569,0,0,1,0-7.2578Z" transform="translate(-1010.0132 -97.6777)"/></g><g id="Lettering"><polygon class="cls-1" points="5007.478 1342.458 1546.012 1342.458 1546.012 1606.256 5007.478 1606.256 5007.478 1342.458 5007.478 1342.458"/><polygon class="cls-5" points="2609.971 1563.477 2504.956 1367.412 2569.274 1367.412 2643.675 1512.519 2715.555 1367.412 2778.588 1367.412 2673.674 1563.477 2609.971 1563.477 2609.971 1563.477"/><path class="cls-5" d="M4053.24,1661.1548h-64.5283l-25.4639-44.5327H3845.7935l-24.3057,44.5327h-62.9287l114.1723-196.065h63.212l117.2968,196.065Zm-109.0254-77.707-40.6669-72.629-39.6416,72.629Z" transform="translate(-1010.0132 -97.6777)"/><polygon class="cls-5" points="3076.591 1563.477 3076.591 1369.056 3135.931 1369.056 3135.931 1530.302 3283.496 1530.302 3283.496 1563.477 3076.591 1563.477 3076.591 1563.477"/><polygon class="cls-5" points="3327.383 1563.477 3327.383 1369.056 3386.723 1369.056 3386.723 1530.302 3534.288 1530.302 3534.288 1563.477 3327.383 1563.477 3327.383 1563.477"/><polygon class="cls-5" points="3576.61 1563.477 3576.61 1367.412 3794.485 1367.412 3794.485 1400.588 3635.949 1400.588 3635.949 1444.075 3783.512 1444.075 3783.512 1477.252 3635.949 1477.252 3635.949 1530.302 3800.082 1530.302 3800.082 1563.477 3576.61 1563.477 3576.61 1563.477"/><polygon class="cls-5" points="3927.497 1563.477 3927.497 1480.959 3819.901 1367.412 3889.442 1367.412 3958.764 1445.112 4026.532 1367.412 4094.877 1367.412 3986.834 1481.227 3986.834 1563.477 3927.497 1563.477 3927.497 1563.477"/><path class="cls-6" d="M3366.0313,1336.874c.4658,14.6226,4.0356,16.416,20.4375,16.416h172.8037c20.9023,0,23.0781-2.3173,21.747-23.1816-23.1552-363.0972-15.0937-492.3281.6416-929.0547.753-20.8906-1.4863-23.2114-22.3886-23.2114H3230.0508c-18.3233,0-22.3037,3.6533-25.0557,22.9927L3110.2573,1066.85c-1.3764,9.6768-21.74,9.6768-23.2251,0L2984.8047,400.7979c-2.9473-19.2032-7.085-22.9556-25.3067-22.9556H2630.2734c-20.9023,0-22.9682,2.31-20.6679,23.0972,29.3276,265.0146,11.6308,613.998,5.6279,929.13-.3984,20.899,1.88,23.2207,22.7822,23.2207h172.8052c18.6626,0,20.7114-2.2441,20.4878-22.4492l-.0449-3.95-.5713-670.0927,27.32.1005c1.1245,3.0635,2.1816,8.7871,4.498,22.5454l109.7745,651.6968c3.1,18.3946,7.6689,22.1494,26.956,22.1494h198.8067c16.5751,0,22.3144-2.8144,25.6152-15.3164.0449-.1718.9385-5.2343,2.5361-14.3549L3342.002,657.7441c.0376-.1406.0737-.2763.11-.4106,1.12-4.1245,24.9385-1.188,26.9312-.7451l-3.0117,680.2856Z" transform="translate(-1010.0132 -97.6777)"/><path class="cls-1" d="M3230.0508,347.8423c-8.2515,0-25.4214,0-38.6509,12.1406-11.0122,10.1055-14.2485,23.5752-16.1055,36.6255,0,0-54.1435,380.6343-77.3359,543.6787-24.9888-162.81-83.501-544.0405-83.501-544.0405-1.9868-12.9434-5.3511-26.3057-16.4228-36.3482-11.7119-10.624-26.0528-12.0561-38.5367-12.0561H2630.2734c-11.58,0-29.0805,0-41.3828,13.7388s-10.3774,31.1425-9.103,42.6582c23.4028,211.4785,16.5132,479.3212,9.85,738.3466-1.5884,61.7315-3.2305,125.565-4.3989,186.9121-.2144,11.2554-.5386,28.2657,11.9834,41.0289s29.5356,12.7631,40.7934,12.7631h172.8052c9.8184,0,26.251,0,38.4473-12.332,11.0634-11.1865,12.0649-25.8589,12.0649-36.8,0-1.2705-.0137-2.4907-.0264-3.6494,0,0-.04-3.5083-.0429-3.8008-.0005-.2231-.24-280.7759-.4063-476.47,31.0513,184.3413,81.8447,485.8857,81.8447,485.8857,2.0718,12.2969,5.8243,26.209,17.9454,36.1685,11.7627,9.6655,25.5,10.998,38.5937,10.998h198.8067c12.22,0,44.6787,0,54.621-37.6582.3965-1.5166.3965-1.5166,3.08-16.8369,0,0,48.5918-279.4028,82.416-473.8935-.8813,199.11-2.1352,482.3833-2.1352,482.3833l.0171.5434c.2177,6.8467.7969,25.0337,16.0971,36.6392,10.733,8.1416,22.8423,8.8227,34.3248,8.8227h172.8037c11.416,0,28.667,0,41.0893-13.24s11.3233-30.4585,10.5962-41.852c-21.1294-331.3414-16.2139-465.2095-3.0771-822.98l3.7607-103.084c.4077-11.3106,1.0239-28.4033-11.4624-41.3477s-29.5894-12.9438-40.9067-12.9438Zm321.3428,60c-.877,24.0386-3.4717,95.1738-3.4717,95.1738-6.7788,184.6084-11.3819,309.9653-11.3819,433.3906,0,115.125,4.0093,228.6031,13.9888,386.8833H3396.0923c.1167-26.3383,3.0576-690.7426,3.0576-690.7426l-23.5981-5.2447a140.9279,140.9279,0,0,0-19.0074-2.0268,83.4861,83.4861,0,0,0-13.6943.3633c-22.29,2.7412-28.3608,18.9365-29.69,23.8349-.0176.064-.4986,1.87-.4986,1.87l-.2148,1.2593-115.8032,665.875c.0024-.0141-.3843,2.1773-.8487,4.8115H3001.3853c-.9571-5.6811-109.2915-648.8291-109.2915-648.8291-2.6578-15.788-3.857-22.2841-5.9185-27.9l-7.189-19.5849-78.32-.2891s.5879,689.43.5942,696.6035H2645.3794c1.1543-58.9087,2.7158-119.9755,4.2383-179.1611,3.1738-123.3779,6.3984-248.7407,6.3984-369.4087,0-130.6357-3.8042-255.7251-15.52-366.8779h315.0386l101.8447,663.5586c2.9731,19.374,20.0679,32.8232,41.5713,32.7055,21.395-.1171,38.2578-13.7006,41.0078-33.0322,0,0,93.5566-657.7134,94.3418-663.2319Z" transform="translate(-1010.0132 -97.6777)"/><path class="cls-6" d="M5639.1455,1353.29H5881.77c20.9024,0,23.0391-2.3154,21.3711-23.1572-21.7773-271.959-22.7-650.6-.08-921.397,1.7422-20.8374-.3886-23.1518-21.291-23.1518H5703.7119c-20.9023,0-23.0693,2.3174-21.6767,23.1748,11.18,167.26,32.6367,475.9844,30.49,535.1719l-33.28,25.9375q-.3-.3912-.6025-.8174c-1.8242-2.5586-2.63-5.086-8.0567-25.2715L5526.3408,407.1455c-4.582-17.0459-10.27-21.5615-27.1562-21.5615H5254.6963c-20.9033,0-23.1123,2.32-22.085,23.1992,19.8994,404.73,18.4131,499.6-.1211,921.3027-.917,20.8848,1.3028,23.2041,22.2061,23.2041h178.0576c20.9024,0,23.1318-2.32,22.2959-23.208-4.4639-111.6572-9.998-270.5561-16.7227-377.7422q-5.244-86.8578-18.46-172.9541l27.3457-18.6171q.29.6474.6094,1.4028,86.0214,282.6812,161.8427,568.3169c.0371.1347.0743.27.1114.4033,5.53,20.1592,8.4668,22.3984,29.3691,22.3984Z" transform="translate(-1010.0132 -97.6777)"/><path class="cls-1" d="M5703.7119,355.584c-11.4258,0-28.6924,0-41.1074,13.27-9.1475,9.78-10.9307,21.709-10.9307,31.8711,0,3.6289.2276,7.0317.4278,10.0317l3.6338,54.1045c8.4277,125.2432,20.0332,297.7095,24.7871,400.313-28.6856-106.7173-125.21-465.8164-125.21-465.8164-8.1377-30.2739-25.4482-43.7744-56.1279-43.7744H5254.6963c-11.3643,0-28.5381,0-40.9951,13.0845s-11.6123,30.2377-11.0537,41.5888c19.8046,402.8076,18.291,499.4292-.128,918.5113-.498,11.3369-1.25,28.4677,11.2178,41.4941s29.6133,13.0273,40.959,13.0273h178.0576c11.332,0,28.4561,0,40.9326-12.9863,9.9561-10.3623,11.5323-23.3516,11.5323-33.9307,0-2.6787-.1016-5.2026-.1934-7.4907l-2.6846-68.7026c-4.0381-104.398-8.6152-222.7256-14.0722-309.7183q-.5772-9.5625-1.2686-19.1465c39.6387,135.2207,77.7324,271.4805,113.6689,406.87l.1993.7256c3.5752,13.0356,7.7871,25.5585,19.6357,34.5947s25.04,9.7851,38.6416,9.7851H5881.77c11.4727,0,28.81,0,41.1914-13.4126s10.9991-30.6992,10.084-42.1377c-22.0859-275.831-22.124-652.7114-.0888-916.5068.957-11.4453,2.4043-28.7466-9.9707-42.1977-12.3731-13.4512-29.73-13.4512-41.2159-13.4512Zm168.7061,60c-10.6172,131.3833-15.94,289.2886-15.94,448.73,0,160.0107,5.36,321.4267,16.05,458.9755H5639.1455c-.125,0-.2236-.0014-.3447-.0014-.0322-.1177-.1631-.5855-.19-.6822-50.3711-189.7583-104.9043-381.2529-162.0888-569.1689l-.501-1.6465-15.875-36.5176L5430.33,735.97l-42.9873,29.2656,2.872,18.7027c8.629,56.2051,14.7413,113.4721,18.167,170.2094,5.417,86.3448,9.9786,204.29,14.0039,308.3511,0,0,1.8877,48.3076,2.376,60.791H5262.8174c9.2265-210.372,14.1289-339.4311,14.1289-468.0957,0-123.1445-4.4912-246.0341-13.9668-439.61h234.5644c.3487,1.2978,144.07,535.9829,144.07,535.9829,6.0068,22.3442,7.4345,27.6528,12.6,34.8994l19.5235,26.4463,23.9482-19.3823L5742,958.9951l.5059-13.977c.1093-3.0186.1621-6.6236.1621-10.7715,0-71.1729-15.5459-302.1885-27.0684-473.4131,0,0-2.209-32.89-3.0381-45.25ZM5654.2158,986.4668l-.001,0Z" transform="translate(-1010.0132 -97.6777)"/><path class="cls-6" d="M3675.3975,710.2686c.24-70.9844,18.125-173.7774,43.82-223.2764,61.5674-118.5947,244.3183-126.1318,402.8735-109.15,220.9712,23.6665,241.47,139.6284,250.0552,379.3408,4.4658,124.6885,23.9707,378.9976-58.0635,495.4663-104.4883,148.35-452.7866,161.9268-565.14,15.4829C3653.6,1143.8584,3674.915,852.97,3675.3975,710.2686ZM4108.93,666.6055c-.8369-30.4136-16.8081-95.3633-34.8374-118.4473-32.2036-41.2339-79.5059-25.2759-108.3833,15.4834-58.1714,82.1064-37.8086,375.8066-34.8374,415.8818,3.414,46.0284,13.9961,164.18,42.58,203.4512,40.6694,55.8745,93.7837,32.4649,116.1254-30.9673,35.8692-101.8442,20.4874-444.2026,19.3531-485.4018Z" transform="translate(-1010.0132 -97.6777)"/><path class="cls-1" d="M3878.4219,352.1543c-91.0376,18.14-153.56,58.855-185.83,121.0151-29.23,56.3091-46.95,164.7193-47.1943,236.9976h0c-.064,19.1406-.5186,41.4643-1,65.0986-1.5821,77.75-3.5513,174.5108,5.3457,266.7578,10.8452,112.4419,35.5078,192.376,75.3974,244.37,29.6763,38.6806,75.4253,69.5893,132.3023,89.3857,51.1562,17.8052,110.4878,26.5576,171.58,25.3115,62.917-1.2837,124.0888-13.0073,176.9038-33.9038,58.206-23.0293,104.0874-56.6621,132.6831-97.2617,36.0537-51.187,57.4062-127.8447,65.2783-234.354,6.3994-86.5781,2.542-176.9185-.2754-242.8818l-1.4853-36.58c-4.0723-113.7207-10.5733-213.5835-49.0352-283.9956-20.2139-37.0064-48.2227-64.8438-85.626-85.1031-36.8066-19.937-83.3139-32.6933-142.18-38.998C4027.7173,337.5625,3944.66,338.9561,3878.4219,352.1543Zm-105.6778,897.7168c-32.3886-42.2178-53.68-114.0864-63.2778-213.6079-8.5615-88.7637-6.6313-183.586-5.0806-259.7769.4864-23.896.9454-46.4668,1.0118-66.1162h0c.2421-71.8242,18.7651-167.789,40.4463-209.5561,12.229-23.5562,30.3964-42.4087,55.54-57.6353,23.6709-14.3345,53.5347-25.1616,88.7627-32.1811,60.27-12.0088,137.2324-13.128,228.75-3.3257,97.25,10.4155,151.542,38.29,181.539,93.2051,29.2491,53.5459,37.2315,131.7666,41.7305,257.38l1.501,36.9917c2.7539,64.4893,6.5254,152.81.3848,235.9-6.9512,94.044-25.2862,162.7554-54.4956,204.2256-21.8462,31.0166-58.398,57.3042-105.7041,76.021-46.2417,18.2954-100.2046,28.5684-156.0533,29.7075C3915.4087,1343.3955,3817.6777,1308.4375,3772.7441,1249.8711Z" transform="translate(-1010.0132 -97.6777)"/><path class="cls-1" d="M4027.5566,494.0713c-31.8725.7436-63.3378,19.78-86.3261,52.227-28.377,40.0533-43.3789,118.7-45.8618,240.4341-1.7281,84.7041,3.3305,164.5933,5.5854,195.0093,2.9736,40.0889,7.0684,76.0664,12.1709,106.9336,8.9795,54.3223,20.7783,90.9429,36.0713,111.9536,31.8437,43.75,67.4639,45.7671,85.8628,43.0752,35.6684-5.2183,66.6269-35.7715,82.8139-81.73,16.7725-47.6225,25.1973-145.7563,25.1973-292.6894q0-83.6177-3.6421-188.2144l-.5093-15.2895c-.9467-34.3985-17.8549-106.22-41.1831-136.0884C4079.3076,506.0962,4054.3843,493.4458,4027.5566,494.0713Zm-29.85,671.2485c-6-8.2436-26.3955-46.166-36.917-188.0156-11.8535-159.8833-7.3608-344.4351,29.3985-396.3193,11.5644-16.3228,26.4194-26.6416,38.7676-26.93,2.8369-.0659,11.4682-.2676,21.4931,12.5688,12.6153,16.1524,27.751,73.874,28.4922,100.8067l.002.0859-.002-.0854.5234,15.7285c10.6758,306.2856-3.9965,418.5986-18.184,458.8818-9.54,27.0845-24.4058,40.7583-34.9078,42.2944C4014.7158,1186.0415,4003.4092,1173.1538,3997.707,1165.32ZM4138.9189,665.78h0v0Z" transform="translate(-1010.0132 -97.6777)"/><path class="cls-6" d="M4445.8311,710.2686c.2392-70.9844,18.124-173.7774,43.8212-223.2764,61.5645-118.5947,244.3165-126.1318,402.8721-109.15,220.9707,23.6665,241.4707,139.6284,250.0547,379.3408,4.4668,124.6885,23.9717,378.9976-58.0625,495.4663-104.4883,148.35-452.7861,161.9268-565.1406,15.4829-95.3428-124.2739-74.0283-415.1626-73.5449-557.8637Zm433.5332-43.6631c-.8379-30.4136-16.81-95.3633-34.8389-118.4473-32.2022-41.2339-79.5059-25.2759-108.3828,15.4834-58.1719,82.1064-37.8086,375.8066-34.836,415.8818,3.4112,46.0284,13.9961,164.18,42.5782,203.4512,40.6689,55.8745,93.7841,32.4649,116.125-30.9673,35.8711-101.8442,20.4882-444.2026,19.3545-485.4018Z" transform="translate(-1010.0132 -97.6777)"/><path class="cls-1" d="M4648.8545,352.1543c-91.0381,18.14-153.56,58.855-185.8281,121.0156-29.2315,56.3067-46.9512,164.7178-47.1953,236.9976v0c-.0645,19.14-.5186,41.4619-1,65.0947-1.5831,77.75-3.5518,174.5117,5.3447,266.7593,10.8457,112.4429,35.5078,192.3779,75.3984,244.3721,29.6758,38.6806,75.4258,69.59,132.3028,89.3857,51.1572,17.8052,110.4882,26.5576,171.58,25.3115,62.917-1.2837,124.0889-13.0073,176.9034-33.9038,58.206-23.0293,104.0869-56.6621,132.6826-97.2617,36.0547-51.188,57.4072-127.8467,65.2793-234.3579,6.3984-86.58,2.54-176.92-.2774-242.8843l-1.4853-36.5737c-4.0723-113.72-10.5723-213.5825-49.0342-283.9951-20.2149-37.0064-48.2236-64.8438-85.627-85.1031-36.8066-19.937-83.3125-32.6933-142.18-38.998C4798.15,337.5625,4715.0928,338.9561,4648.8545,352.1543Zm-105.6768,897.7168c-32.39-42.2183-53.68-114.0874-63.2783-213.61-8.5615-88.7646-6.6318-183.5874-5.081-259.7788.4863-23.8945.9462-46.4638,1.0127-66.1123v0c.2421-71.8247,18.7646-167.789,40.4472-209.5547,12.2285-23.5571,30.3955-42.41,55.5381-57.6362,23.6709-14.3345,53.5352-25.1621,88.7627-32.1811,60.27-12.0088,137.2324-13.128,228.75-3.3257,97.251,10.4155,151.543,38.29,181.5391,93.2051,29.25,53.5463,37.2324,131.7675,41.73,257.38l1.501,36.9859c2.7539,64.4892,6.5274,152.81.3858,235.9018-6.9512,94.0459-25.2862,162.7588-54.4952,204.2295-21.8466,31.0166-58.3984,57.3037-105.7041,76.0205-46.2412,18.2959-100.2031,28.5689-156.0527,29.708C4685.8428,1343.3955,4588.1113,1308.438,4543.1777,1249.8711Z" transform="translate(-1010.0132 -97.6777)"/><path class="cls-1" d="M4797.9912,494.0713c-31.874.7436-63.3389,19.78-86.3281,52.2275-28.377,40.0533-43.3789,118.7-45.8613,240.4336-1.7286,84.728,3.331,164.6021,5.5869,195.01,8.3554,112.74,24.5859,186.3843,48.24,218.8857,31.8447,43.751,67.4649,45.7676,85.8633,43.0757,35.6689-5.2183,66.6269-35.772,82.8135-81.731,23.1357-65.686,30.3886-227.4819,21.5566-480.8925l-.51-15.3013c-.9472-34.3984-17.8564-106.22-41.1836-136.0874C4849.7412,506.0967,4824.8184,493.4458,4797.9912,494.0713ZM4768.14,1165.32c-6.0019-8.2471-26.4033-46.18-36.915-188.0141-11.8594-159.8794-7.3691-344.4292,29.3965-396.3213,11.5644-16.3228,26.42-26.6416,38.7685-26.93,2.837-.0659,11.4678-.2676,21.4922,12.5683,12.6153,16.1524,27.752,73.8745,28.4952,100.8081l.0009.0855-.0009-.0864.5224,15.74c10.6738,306.28-3.9971,418.5874-18.1855,458.8706-9.54,27.085-24.4053,40.7588-34.9073,42.2949C4785.1484,1186.042,4773.8418,1173.1543,4768.14,1165.32Z" transform="translate(-1010.0132 -97.6777)"/><path class="cls-6" d="M2831.5581,2755.0791h127.0327c18.0528,0,20.0381-2.3213,19.8672-23.2236l-7.36-898.0332c-.1714-20.8243-2.5928-23.2246-23.4151-23.2246h-69.6748c-20.9033,0-23.165,2.2246-22.6157,22.2627l14.2378,519.663c.1357,4.9805.229,8.9014.26,11.9873l-20.3046,8.5694c-11.8081-33.6963-59.1846-365.9121-84.3682-539.4981-3.001-20.6875-5.6567-22.9843-26.56-22.9843H2614.7915c-20.9023,0-23.0664,2.3183-21.6352,23.1767,19.6074,285.7236,8.1674,567.6143-.9493,898.0889-.5771,20.8945,1.6822,23.2158,22.5845,23.2158h89.2564c17.2138,0,19.0351-2.2246,18.2114-22.252l-21.356-519.6826c-.2861-6.9433-.4585-11.831-.4761-15.2529l18.8062-8.0107c.0234.0205.0464.039.0693.0576a4.2687,4.2687,0,0,1,.8833,1.4365q55.1184,264.62,90.274,532.8164a80.5308,80.5308,0,0,1-.2417,14.3906c-1.6968,14.8487.4365,16.4971,21.34,16.4971Z" transform="translate(-1010.0132 -97.6777)"/><path class="cls-1" d="M2878.0078,1780.5977c-11.3506,0-28.5039,0-40.9731,12.8154-10.35,10.6377-11.7344,23.958-11.7344,34.4482,0,2.0645.0542,4.0186.103,5.8213,0,0,3.4566,126.1621,6.9072,252.1016-11.23-75.6485-22.2089-151.5254-30.0654-205.8262l-7.3393-50.6836c-1.5352-10.583-3.8555-26.5781-16.625-37.6279s-28.93-11.0488-39.6241-11.0488H2614.7915c-11.4321,0-28.7085,0-41.1191,13.291s-11.2286,30.5312-10.4458,41.9394c17.415,253.7783,10.2485,502.7227,1.95,790.9756l-2.9585,104.2324c-.3116,11.2823-.7828,28.334,11.7216,41.1885s29.5635,12.8545,40.8516,12.8545h89.2564c9.4321,0,25.2192,0,37.1508-12.4326,9.6568-10.0625,11.2481-22.4209,11.2481-33.0674,0-2.8047-.11-5.4912-.2129-7.9844,0,0-5.4717-133.1523-10.937-266.1484,14.708,87.07,27.831,174.4023,39.2505,261.416.0669,1.2227.1215,2.415.1215,3.499a42.2074,42.2074,0,0,1-.2573,4.8194,81.7942,81.7942,0,0,0-.6616,9.5937c0,7.9951,1.6768,18.1133,9.4648,26.8418,12.0123,13.4629,28.83,13.4629,42.3433,13.4629h127.0327c9.5567,0,25.5523,0,37.6865-12.2334,12.4146-12.5166,12.2789-29.1152,12.18-41.2353l-7.36-898.0342c-.0918-11.14-.2305-27.9727-12.8364-40.4756s-29.439-12.5029-40.5777-12.5029Zm63.1445,60c.1045,12.7666,7.1368,870.7568,7.2491,884.4814h-107.91c-.0405-.9453-.0313-1.8408-.0933-2.8086l-.0634-.9922-.1294-.9853c-23.4141-178.6534-53.9131-358.6651-90.65-535.0352l-.6612-3.1748-1.3247-2.9609a32.9881,32.9881,0,0,0-9.1836-12.3311l-14.0669-11.5976-16.8427,7.0869-37.1514,15.8252.1025,19.94c.02,3.9707.2066,9.1934.501,16.334,0,0,20.2739,493.3545,20.9868,510.6992h-69.5039c.68-23.9658,2.74-96.5488,2.74-96.5488,4.5673-158.66,8.7944-305.4766,8.7944-447.9805,0-114.8-2.7813-226.81-10.2984-339.9521H2735.92c1.5152,10.4658,6.9434,47.9521,6.9434,47.9521,36.4971,252.2529,67.5884,463.57,78.41,494.4512l10.56,30.1338,68.4888-28.9053-.7026-32.5234s-13.55-494.55-14.0035-511.1084Z" transform="translate(-1010.0132 -97.6777)"/><path class="cls-6" d="M3412.42,2538.3145l7.27-705.211c.21-20.2558-2.0893-22.5058-22.9917-22.5058H3296.0566c-20.9023,0-23.2,2.246-22.9775,22.4589l7.2393,658.9629c.2295,20.9024.0156,24.5508-2.1446,36.5039-7.2075,39.8848-37.5722,58.3614-62.166,48.4981-10.51-4.2149-25.5679-23.2119-31.8154-50.7442-3.835-16.8974-4.26-21.0976-4.26-42V1833.0479c0-20.2042-2.3227-22.45-23.2251-22.45h-92.9c-20.9023,0-23.1806,2.2539-22.78,22.5332l14.581,740.0244c.4121,20.8984.8081,25.5254,3.9536,46.2627,15.4458,101.82,64.6617,148.1181,151.3374,158.8857,118.8379,14.7656,182.3194-62.2363,198.4473-193.66,2.5527-20.795,2.86-25.4288,3.0747-46.3291Z" transform="translate(-1010.0132 -97.6777)"/><path class="cls-1" d="M3296.0566,1780.5977c-11.28,0-28.3261,0-40.8369,12.6494-12.4428,12.581-12.26,29.166-12.1386,40.1406l7.2392,658.9609c.2236,20.3711-.0283,21.7657-1.6684,30.84-2.149,11.8926-7.5074,21.247-14.3335,25.0234a8.5509,8.5509,0,0,1-6.2759,1.13c-2.917-2.7148-10.66-12.3662-14.5938-29.7031-3.2187-14.1817-3.5166-16.0469-3.5166-35.3594V1833.0479c0-11.1016,0-27.879-12.9233-40.3711-12.4956-12.0791-29.229-12.0791-40.3018-12.0791h-92.9c-11.3051,0-28.39,0-40.8857,12.7451-12.4355,12.6836-12.1064,29.3506-11.8887,40.38l14.5811,740.0234c.436,22.1221.957,28.2178,4.2871,50.1709,8.6479,57.01,27.3467,99.5527,57.1641,130.0586,29.3271,30.0039,68.624,47.7,120.1357,54.1,57.5352,7.1484,106.2842-4.5,144.8926-34.6211,47.1894-36.8154,76.4707-99.1113,87.03-185.1562,2.6992-21.99,3.0688-27.5616,3.2963-49.6749v.001l7.2706-705.2109c.1132-10.9863.2851-27.5918-12.1646-40.1719-12.5137-12.6435-29.5522-12.6435-40.8262-12.6435Zm93.5547,60c-.1572,15.2666-7.1894,697.4082-7.1894,697.4082-.2031,19.7353-.4424,23.3505-2.8526,42.9824-8.4282,68.6787-30.6914,118.874-64.3838,145.16-25.5922,19.9668-59.435,27.4971-100.5878,22.3838-76.09-9.4521-112.4131-48.1631-125.376-133.6133-2.9619-19.5263-3.2324-22.6923-3.62-42.3554,0,0-14.1123-716.1992-14.4224-731.9658h78.7529v643.68c0,23.1114.6548,29.4756,5.0044,48.64,7.7544,34.1738,27.81,63.0879,49.9048,71.9492,18.7954,7.5371,40.126,6.0244,58.5215-4.1523,22.7729-12.5987,38.9316-36.9659,44.333-66.8555,2.1563-11.9326,2.6938-18.1289,2.6938-31.5225,0-3.1074-.0292-6.6025-.0732-10.6455,0,0-6.9839-635.7256-7.1528-651.0927Z" transform="translate(-1010.0132 -97.6777)"/><path class="cls-6" d="M4031.5146,2498.5947v-30.2929c0-13.6309-2.3232-15.1456-23.2255-15.1456h-69.6748c-20.9024,0-23.2256,2.13-23.2256,21.3067v236.8c0,20.9023,2.1133,24.207,21.1357,33.0508,32.9151,15.3008,118.2193,34.4775,137.5684,33.99,104.1352-2.6191,148.8208-63.4316,170.3154-162.5742,22.1265-102.04,22.312-262.2822-38.7065-340.6318-33.2427-42.6856-91.4185-81.15-127.7378-123.8672-39.4917-46.4463-63.4663-103.6856-34.8374-154.8321,14.2475-25.4531,45.6128-37.0879,61.9326-15.4843,13.44,17.79,24.8613,64.3271,21.6753,89.8222-2.0889,16.7061.0019,18.5616,20.9043,18.5616h66.91c16.4234,0,18.2481-2.1075,18.2481-21.0713V1862.1572c0-20.9023-2.0435-24.3515-20.438-34.4863-63.2539-34.8467-139.0957-40.9912-188.5859-20.9453-107.4034,43.5049-122.9649,185.7139-116.125,315.0859,5.9477,112.4912,23.5351,175.3858,106.9716,244.2725,67.5049,55.7344,134.9663,102.5722,109.7945,192.9765-7.3892,26.5411-29.5591,58.3575-64.565,41.1875-12.9179-6.3369-24.8271-37.1191-26.7387-59.9306-1.437-17.1319-1.5953-21.3047-1.5953-41.7227Z" transform="translate(-1010.0132 -97.6777)"/><path class="cls-1" d="M4012.51,1778.92c-57.6587,23.3555-97.5176,72.0889-118.47,144.8467-15.2959,53.1172-20.6445,118.417-16.3505,199.6289,2.6084,49.3447,7.6352,101.4482,26.5839,148.1777,17.5977,43.3946,46.5909,80.7774,91.2461,117.6446l14.106,11.5615c66.4585,54.2676,103.2153,88.001,85.8872,150.2344-3.5273,12.6689-10.2637,21.6728-14.812,23.7129-.5864.2627-2.0088.8994-5.6865-.5459-3.8584-5.0508-10.7369-21.1778-12.0093-36.3682-1.3653-16.28-1.49-19.5791-1.49-39.2178v-30.2929c0-7.2413,0-26.4756-17.3876-37.8135-10.4161-6.792-21.9034-7.3321-35.8379-7.3321h-69.6748c-11.5435,0-27.3526,0-39.731,11.3545-13.4946,12.3789-13.4946,29.64-13.4946,39.9522v236.8c0,12.8838.624,25.4248,8.1606,37.21,7.5181,11.7558,18.6353,17.6084,30.3277,23.0449,35.7441,16.6152,125.6826,37.4131,150.9707,36.7763,142.8559-3.5927,181.9218-107.9921,198.8794-186.208,9.3364-43.0566,14.2407-91.792,14.2407-139.0683,0-16.543-.6006-32.9082-1.8218-48.7881-4.0747-52.9785-17.2319-126.79-56.7754-177.5654-19.2886-24.7676-45.2808-47.4424-70.417-69.3711-21.8047-19.0225-42.4-36.99-58.1343-55.4951-18.54-21.8047-31.3027-44.0176-36.9106-64.2383a86.5149,86.5149,0,0,1-3.3638-23.1514,67.0037,67.0037,0,0,1,8.76-33.3564c3.9531-7.0635,9.5337-10.4424,12.3589-11.2471,7.2934,10.6035,15.65,41.4971,15.65,60.9814a50.7515,50.7515,0,0,1-.3477,6.2305,89.9255,89.9255,0,0,0-.8779,11.4541c0,8.3838,1.7749,18.4326,9.4536,27.1309,12.09,13.6963,29.4336,13.6963,42.0972,13.6963h66.91c9.0948,0,26.023,0,37.961-13.7852,10.2871-11.8789,10.2871-26.5635,10.2871-37.2861V1862.1572c0-12.5937-.5747-24.8681-7.5127-36.5752-6.9175-11.6728-17.4038-18.1015-28.4483-24.1865a293.7782,293.7782,0,0,0-110.874-34.626C4077.6079,1762.8408,4041.8345,1767.042,4012.51,1778.92Zm92.7456,850.5518c21.9638-9.8516,39.93-33.1651,48.0591-62.3653,13.041-46.8359,6.601-88.6875-19.689-127.9423-21.5684-32.2051-52.89-57.7813-86.0513-84.8594l-13.8554-11.3545c-75.9327-62.6924-90.5235-117.0029-96.1133-222.7227-3.9351-74.4326.6748-133.2636,14.0918-179.8574,15.812-54.9082,43.0722-89.5283,83.3379-105.8389,43.2968-17.5371,110.2622-9.5537,162.8476,19.4161,2.1387,1.1787,3.688,2.0722,4.83,2.7588.0493,1.3046.084,3.0673.084,5.4511v197.1407h-45.5791c-.4634-32.7315-12.5127-75.6749-28.2212-96.4678a57.2375,57.2375,0,0,0-50.3325-23.0889c-24.5034,1.6768-48.1509,17.7725-61.7154,42.0039-17.1054,30.5606-20.86,65.7793-10.8574,101.8486,8.0342,28.9708,24.5264,58.2647,49.0181,87.0694,18.63,21.9131,41.8989,42.2119,64.4014,61.8428,24.0566,20.9873,46.7793,40.8095,62.5224,61.0244,24.0381,30.8662,39.353,81.1093,44.29,145.3,4.2836,55.7031.19,117.8642-11.2334,170.542-10.3116,47.5625-25.51,81.2666-46.4639,103.0371-22.2388,23.1064-53.4072,34.8506-95.2871,35.9043-14.4741.1767-95.2486-17.7608-124.168-31.2041-1.53-.7119-2.7427-1.2959-3.7373-1.7891-.0268-1.09-.0444-2.4111-.0444-4.0576V2483.1562h56.1259v15.4385c0,21.2676.1905,26.2276,1.7,44.2295,1.5323,18.2891,12.32,69.1016,43.4224,84.3574C4071.7939,2639.5215,4092.3994,2635.2383,4105.2554,2629.4717Z" transform="translate(-1010.0132 -97.6777)"/><path class="cls-6" d="M4596.6543,1988.6562V1831.1426c0-18.4912-2.1338-20.5449-21.3418-20.5449h-241.875c-20.9023,0-23.1812,2.3222-22.7866,23.2226,4.7573,252.2266,14.435,693.5488,7.3042,756.749q-.2975,2.6354-.66,5.5752a555.9354,555.9354,0,0,1-9.1728,127.9912q.183,3.8731.4521,7.72c1.4756,20.9023,3.961,23.2236,24.8633,23.2236h241.875c19.208,0,21.3418-2.3213,21.3418-23.2236V2584.7637c0-20.9024-2.3223-23.2246-23.2246-23.2246H4472.7891c-20.9043,0-23.2266-2.3243-23.2266-23.2266V2391.2207c0-20.9023,2.3223-23.2236,23.2266-23.2236h92.8984c20.9023,0,23.2246-2.3223,23.2246-23.2246v-139.35c0-20.9024-2.3223-23.2266-23.2246-23.2266h-92.8984c-20.9043,0-23.2266-2.3213-23.2266-23.2236V2027.3652c0-20.9023,1.9551-23.123,19.5361-22.1992,0,0,72.36-1.6631,122.3467,9.4434,6.9414,8.332,5.209-5.0508,5.209-25.9532Z" transform="translate(-1010.0132 -97.6777)"/><path class="cls-1" d="M4333.4375,1780.5977c-11.2568,0-28.269,0-40.792,12.7617s-12.2017,29.7715-11.9892,41.0273l1.8261,94.8194c4.6753,240.5693,11.7412,604.1181,5.6616,658l-.91,7.6865.09,2.5752a526.6561,526.6561,0,0,1-8.6777,121.084l-.69,3.6406.6929,11.7832c.77,10.9189,1.9365,27.4316,14.5933,39.2539,12.6865,11.85,29.2407,11.85,40.1948,11.85h241.875c10.3154,0,27.5811,0,39.9629-13.4736,11.3789-12.3819,11.3789-28.2,11.3789-39.75V2584.7637c0-11.1914,0-28.1035-12.5605-40.6641s-29.4727-12.5605-40.6641-12.5605h-93.8672v-133.542h86.125c11.1914,0,28.1035,0,40.6641-12.5606s12.56-29.4726,12.56-40.664v-139.35c0-11.1905,0-28.1026-12.56-40.6631-12.56-12.5635-29.4736-12.5635-40.665-12.5635h-86.125V2035.084c19.4355.0088,64.0547.8262,98.7969,7.46a31.5859,31.5859,0,0,0,27.1621,2.6358c7.3164-2.7158,19.792-10.4268,21.1367-31.56.2725-4.2764.1934-9.1806.1016-14.8594l-.1055-10.1045V1831.1426c0-9.96,0-26.6309-12.6621-38.8194-12.1807-11.7255-28.127-11.7255-38.68-11.7255Zm233.2168,60V1980.03c-43.6191-5.542-89.2676-5.02-97.1475-4.878-9.6328-.4892-24.8173-.8281-36.9775,10.7081-12.9668,12.3037-12.9668,29.1816-12.9668,41.5048v131.6075c0,11.1914,0,28.1044,12.5625,40.665,12.56,12.5586,29.4727,12.5586,40.6641,12.5586h86.123v125.8008h-86.123c-11.1914,0-28.1036,0-40.6641,12.5586-12.5625,12.5605-12.5625,29.4736-12.5625,40.665v147.0918c0,11.1914,0,28.1025,12.56,40.6641s29.4747,12.5625,40.6661,12.5625h93.8652v133.54H4338.4209a586.8967,586.8967,0,0,0,9.4131-104.4834c0-7.7246-.1758-15.4482-.4824-23.166.2-1.6865.414-3.4961.414-3.4961,1.9356-17.1484,2.749-57.5732,2.749-115.5557,0-122.8-3.6513-324.3525-8.0439-550.3369,0,0-1.4434-74.9443-1.6836-87.4433Z" transform="translate(-1010.0132 -97.6777)"/><path class="cls-6" d="M5077.5645,1832.6582q18.9579,449.0216.3906,898.4473-.0206.3911-.041.78c-1.15,20.8741,1.0468,23.1934,21.9482,23.1934l119.1846-1.166c17.7676,0,19.6094-.5469,19.4394-21.4492l-.0029-1.3907q-20.18-452.3349,1.3623-905.0888c2.332-15.0772-11.0361-14.0078-25.9551-14.0078l-114.0283-1.3789c-20.5146,0-23.0381,2.2353-22.2978,22.0605Z" transform="translate(-1010.0132 -97.6777)"/><path class="cls-1" d="M5099.8623,1780.5977c-11.3154,0-28.416,0-40.8857,12.9443-10.0557,10.4385-11.5459,23.6582-11.5459,33.74,0,2.3633.082,4.5537.1552,6.4951l.0049.1465c6.3408,150.1778,9.5117,301.4278,9.5117,452.668,0,148.06-3.039,296.1094-9.1162,443.1387-.0117.2187-.0312.5781-.0312.5781-.1475,2.6885-.3145,5.71-.3145,8.9316,0,10.3125,1.7071,22.6729,11.19,32.6914,12.4424,13.1475,29.6474,13.1475,41.0322,13.1475,0,0,119.1055-1.1641,119.3535-1.166,11.5918,0,25.9688-.0557,37.52-11.7022,10.877-10.9658,11.7666-25.2822,11.7666-36.6435,0-1.0967-.0088-2.1621-.0166-3.1983-.0009-.166-.0039-1.997-.0039-1.997l-.0293-.6358c-6.458-144.7773-9.6875-290.5351-9.6875-436.3193,0-155.458,3.6739-310.9463,11.0147-465.3076a50.52,50.52,0,0,0,.3349-5.39,39.05,39.05,0,0,0-9.3632-26.0664c-12.7686-14.8271-30.9415-14.7451-44.209-14.6846,0,0-2.2491.0069-2.5078.0079-.4346-.0059-113.9913-1.3789-113.9913-1.3789Zm17.24,505.9951c0-148.9658-3.08-297.9336-9.1972-445.8955,13.8213.167,93.6533,1.1328,101.2,1.2236-6.8682,149.835-10.3389,300.6748-10.3389,451.4961,0,143.8633,3.1445,287.6943,9.3955,430.6016-16.1846.1582-86.5.8457-99.9482.9775C5114.1289,2579.5146,5117.1025,2433.0605,5117.1025,2286.5928Z" transform="translate(-1010.0132 -97.6777)"/><path class="cls-6" d="M5579.7285,1988.6562V1831.1426c0-18.4912-2.1347-20.5449-21.3418-20.5449h-241.875c-20.9023,0-23.1816,2.3222-22.7871,23.2226,4.7578,252.2266,14.4356,693.5488,7.3027,756.749q-.2973,2.6354-.66,5.5752a555.8564,555.8564,0,0,1-9.1709,127.9912q.18,3.8731.45,7.72c1.4756,20.9023,3.9629,23.2236,24.8652,23.2236h241.875c19.2071,0,21.3418-2.3213,21.3418-23.2236V2584.7637c0-20.9024-2.3242-23.2246-23.2265-23.2246H5455.8613c-20.9023,0-23.2246-2.3243-23.2246-23.2266V2391.2207c0-20.9023,2.3223-23.2236,23.2246-23.2236H5548.76c20.9043,0,23.2265-2.3223,23.2265-23.2246v-139.35c0-20.9024-2.3222-23.2266-23.2265-23.2266h-92.8985c-20.9023,0-23.2246-2.3213-23.2246-23.2236V2027.3652c0-20.9023,1.9531-23.123,19.5362-22.1992,0,0,72.36-1.6631,122.3447,9.4434,6.9433,8.332,5.2109-5.0508,5.2109-25.9532Z" transform="translate(-1010.0132 -97.6777)"/><path class="cls-1" d="M5316.5117,1780.5977c-11.2568,0-28.27,0-40.792,12.7617s-12.2021,29.7715-11.99,41.0273l1.8252,94.7539c4.6767,240.5928,11.7432,604.1787,5.6621,658.0645l-.9111,7.6885.0908,2.5751a526.5356,526.5356,0,0,1-8.6758,121.084l-.6894,3.6358.6884,11.7646c.7725,10.9414,1.9385,27.4551,14.5977,39.2783,12.6865,11.8477,29.24,11.8477,40.1943,11.8477h241.875c10.3154,0,27.58,0,39.9619-13.4736,11.38-12.3819,11.38-28.2,11.38-39.75V2584.7637c0-11.1914,0-28.1045-12.5635-40.6651-12.56-12.5595-29.4726-12.5595-40.663-12.5595h-93.8653v-133.542H5548.76c11.1914,0,28.1035,0,40.665-12.56,12.5615-12.5615,12.5615-29.4736,12.5615-40.665v-139.35c0-11.1915,0-28.1026-12.56-40.6641s-29.4746-12.5625-40.666-12.5625h-86.1231V2035.084c19.4356.0088,64.0557.8262,98.7959,7.46a31.5853,31.5853,0,0,0,27.1641,2.6348c7.3164-2.7158,19.79-10.4267,21.1357-31.5586.2725-4.2773.1934-9.1826.1016-14.8613l-.1055-10.1026V1831.1426c0-9.96,0-26.6309-12.6631-38.82-12.1806-11.7246-28.1269-11.7246-38.6787-11.7246Zm233.2168,60V1980.03c-43.6191-5.542-89.27-5.02-97.1474-4.878-9.6329-.4892-24.8194-.8281-36.9786,10.7081-12.9658,12.3027-12.9658,29.1806-12.9658,41.5048v131.6075c0,11.1914,0,28.1035,12.5615,40.664s29.4727,12.56,40.6631,12.56h86.125v125.8008h-86.125c-11.19,0-28.1025,0-40.6631,12.5595s-12.5615,29.4727-12.5615,40.6641v147.0918c0,11.19,0,28.1025,12.56,40.6631,12.5605,12.5635,29.4736,12.5635,40.665,12.5635h93.8672v133.54H5321.4951a586.8754,586.8754,0,0,0,9.4121-104.4687c0-7.73-.1767-15.459-.4834-23.1817.2-1.6855.4141-3.4951.4141-3.4951,1.9355-17.1514,2.75-57.5869,2.75-115.5859,0-122.8125-3.6514-324.377-8.044-550.3731,0,0-1.4423-74.88-1.6835-87.3769Z" transform="translate(-1010.0132 -97.6777)"/><path class="cls-6" d="M5753.6914,2498.5947v-30.2929c0-13.6309-2.3242-15.1456-23.2266-15.1456H5660.791c-20.9023,0-23.2246,2.13-23.2246,21.3067v236.8c0,20.9023,2.1133,24.207,21.1348,33.0508,32.916,15.3008,118.2187,34.4775,137.5693,33.99,104.1358-2.6191,148.8193-63.4316,170.3154-162.5742,22.125-102.04,22.3125-262.2822-38.708-340.6318-33.2431-42.6856-91.417-81.15-127.7373-123.8672-39.4912-46.4463-63.4668-103.6856-34.8369-154.8321,14.2481-25.4531,45.6123-37.0879,61.9326-15.4843,13.44,17.79,24.8614,64.3271,21.6739,89.8222-2.0879,16.7061.0029,18.5616,20.9043,18.5616h66.9121c16.4228,0,18.248-2.1075,18.248-21.0713V1862.1572c0-20.9023-2.0439-24.3515-20.4385-34.4863-63.2529-34.8467-139.0957-40.9912-188.5869-20.9453-107.4023,43.5049-122.9648,185.7139-116.125,315.0859,5.9492,112.4912,23.5362,175.3858,106.9717,244.2725,67.5049,55.7344,134.9678,102.5722,109.7949,192.9765-7.39,26.5411-29.5586,58.3575-64.5644,41.1875-12.919-6.3369-24.8272-37.1191-26.7393-59.9306-1.4365-17.1319-1.5957-21.3047-1.5957-41.7227Z" transform="translate(-1010.0132 -97.6777)"/><path class="cls-1" d="M5734.6865,1778.92c-57.6582,23.3555-97.5166,72.0889-118.4687,144.8467-15.2969,53.1182-20.6455,118.417-16.3516,199.6289,2.6094,49.3447,7.6367,101.4492,26.585,148.1777,17.5976,43.3946,46.5918,80.7774,91.2441,117.6446l14.1084,11.5634c66.458,54.2667,103.2149,88,85.8867,150.2325-3.5273,12.6689-10.2646,21.6728-14.8125,23.7129-.5849.2627-2.0088.8994-5.6865-.5459-3.8574-5.0508-10.7353-21.1778-12.0088-36.3692-1.3662-16.2842-1.4912-19.583-1.4912-39.2168v-30.2929c0-7.2413,0-26.4756-17.39-37.8145-10.4151-6.791-21.9024-7.3311-35.837-7.3311H5660.791c-11.5439,0-27.3535,0-39.7314,11.3555-13.4932,12.3789-13.4932,29.6387-13.4932,39.9512v236.8c0,12.8838.624,25.4248,8.16,37.209,7.5175,11.7568,18.6347,17.6094,30.3271,23.0449,35.7451,16.6162,125.6836,37.4141,150.9717,36.7773,142.8535-3.5927,181.9209-107.9921,198.8789-186.208,9.3369-43.0586,14.24-91.7939,14.24-139.0683,0-16.544-.6-32.9082-1.8213-48.7881-4.0732-52.9795-17.2324-126.791-56.7763-177.5654-19.2891-24.7676-45.2813-47.4434-70.417-69.3721-21.8047-19.0225-42.3994-36.9893-58.1338-55.4941-18.5391-21.8047-31.3027-44.0176-36.91-64.2383a86.4946,86.4946,0,0,1-3.3642-23.15,67.0084,67.0084,0,0,1,8.76-33.3574c3.9541-7.0625,9.5342-10.4424,12.3594-11.2471,7.294,10.6035,15.6485,41.4941,15.6485,60.9775a50.5737,50.5737,0,0,1-.3477,6.2324,89.974,89.974,0,0,0-.877,11.4541c0,8.3848,1.7745,18.4346,9.4542,27.1338,12.09,13.6954,29.4326,13.6954,42.0957,13.6954h66.9121c9.0947,0,26.0234,0,37.9609-13.7842,10.2871-11.88,10.2871-26.5645,10.2871-37.2871V1862.1572c0-12.5937-.5742-24.8681-7.5137-36.5761-6.917-11.6719-17.4033-18.1006-28.4482-24.1856A293.7661,293.7661,0,0,0,5838.14,1766.77C5799.7852,1762.8408,5764.0117,1767.042,5734.6865,1778.92Zm92.7461,850.5518c21.9629-9.8506,39.9287-33.1651,48.0586-62.3643,13.042-46.8369,6.6026-88.6875-19.6875-127.9424-21.5683-32.205-52.8906-57.7812-86.0508-84.8584l-13.8564-11.3564c-75.9317-62.6914-90.5235-117.0029-96.1143-222.7227-3.9345-74.4316.6748-133.2636,14.0928-179.8574,15.8115-54.9082,43.0713-89.5283,83.3369-105.8389,43.2979-17.5371,110.2637-9.5537,162.8486,19.4161,2.1387,1.1787,3.69,2.0722,4.83,2.7588.0489,1.3046.084,3.0673.084,5.4511v197.1407h-45.581c-.462-32.7295-12.5108-75.6729-28.22-96.4668a57.24,57.24,0,0,0-50.333-23.09c-24.5029,1.6768-48.15,17.7715-61.7138,42.0039-17.1075,30.5606-20.8624,65.7793-10.8594,101.8486,8.0342,28.9708,24.5263,58.2647,49.0176,87.0694,18.6308,21.9121,41.8994,42.2109,64.4,61.8418,24.0577,20.9873,46.78,40.8105,62.5235,61.0263,24.039,30.8653,39.3545,81.1084,44.291,145.2989,4.2842,55.7021.1885,117.8613-11.2324,170.542-10.3125,47.5634-25.5117,81.2666-46.4649,103.0371-22.2382,23.1064-53.4072,34.8506-95.2861,35.9043-14.4736.1767-95.248-17.7608-124.17-31.2041-1.5293-.711-2.7412-1.2949-3.7363-1.7881-.0264-1.0908-.044-2.4121-.044-4.0586V2483.1562h56.125v15.4385c0,21.2627.19,26.2227,1.7,44.2295,1.5332,18.291,12.3232,69.1035,43.4229,84.3584C5793.9717,2639.5215,5814.5762,2635.2383,5827.4326,2629.4717Z" transform="translate(-1010.0132 -97.6777)"/><path class="cls-6" d="M3833.7432,2346.6816c3.8066,19.1836,4.3681,23.6329,5.62,44.4981l20.5263,342.1055c1.1768,19.6142-1.0146,21.7939-21.9179,21.7939h-85.1572c-20.4532,0-23.3457-2.5752-24.2295-21.583l-13.4014-288.2617c-.97-20.88-1.3174-24.5293-3.4775-36.4815-5.2818-29.2285-18.4659-41.6123-40.8819-43.7588a102.9032,102.9032,0,0,0-34.3388,3.0791c-6.5909,2.753-7.5381,8.3575-7.5381,23.1475V2733.248c0,19.6475-1.9551,21.8311-19.5577,21.8311H3505.082c-20.9033,0-23.2954-1.3516-23.9218-13.5127a47.67,47.67,0,0,1,.1318-6.3877,235.94,235.94,0,0,0,8.1416-65.2051c-.0068-1.7851-.0215-3.73-.04-5.8574l-7.3379-830.9092c-.1792-20.35,1.8857-22.6093,20.6528-22.6093h183.2183c20.9023,0,24.98.1894,40.7846,1.9091,18.7534,2.0411,53.6519,16.9336,64.8111,25.1875,34.5122,25.5215,50.8125,111.878,54.1914,154.0577,7.4961,93.58,1.67,223.0537-97.669,271.7939-1.2627.6191-2.4394,1.2031-3.8164,1.8965l.4068,9.9668q1.9943.2139,4.37.4316c53.31,4.9043,75.5176,24.3838,84.7383,70.8408ZM3628.9473,2174.457c0,20.9014,1.2382,23.3643,12.375,24.6377,38.8925,4.4463,62.28-13.8457,68.9131-32.38,19.729-55.1386,23.8339-149.416-15.4336-178.998-8.127-6.1211-10.9229-6.8027-27.9532-6.8027h-25.2675c-11.37,0-12.6338,2.0742-12.6338,20.7373V2174.457Z" transform="translate(-1010.0132 -97.6777)"/><path class="cls-1" d="M3502.7085,1780.5977c-9.8374,0-26.3027,0-38.523,12.3281-12.3759,12.4853-12.227,29.3711-12.1289,40.5459l7.3379,830.9092.043,6.0576a205.9132,205.9132,0,0,1-7.1064,56.914l-.7115,2.6309-.2251,2.7168a77.0334,77.0334,0,0,0-.1948,10.4033c.3262,6.335,1.3184,25.5947,19.5625,35.9,9.9834,5.64,20.522,6.0752,34.32,6.0752H3609.39c9.95,0,26.6041,0,38.7247-13.53,10.833-12.0927,10.833-27.24,10.833-38.3008V2394.793a72.9568,72.9568,0,0,1,9.4121.1035c6.3608.6162,10.6054,1.3789,13.8247,19.1914,1.8139,10.04,2.083,12.1084,3.0317,32.5381l13.4019,288.2636c.4673,10.0479,1.2485,26.8663,14.79,38.9278,12.6431,11.2617,28.7495,11.2617,39.4068,11.2617h85.1572c11.4946,0,28.8652,0,41.2461-13.1455,9.2676-9.8408,10.9433-22.0488,10.9433-31.8535,0-3.169-.1748-6.086-.3252-8.5918L3869.31,2389.3828c-1.33-22.16-2.0757-28.0576-6.1407-48.54v-.001c-8.0854-40.7412-25.9262-66.8623-56.9209-81.4522,28.1031-26.49,48.1338-62.42,59.7442-107.4335,8.0327-31.1436,12.0185-66.1495,12.0185-106.0186q0-26.7832-2.3925-56.5811c-1.105-13.7939-12.3526-135.92-66.2583-175.7832-15.875-11.7421-55.6343-28.3037-79.4029-30.8906-17.0141-1.8515-21.9521-2.0849-44.03-2.0849Zm183.2183,60c19.7939,0,22.9516.1455,37.5395,1.7334,12.5982,1.371,42.8716,14.05,50.2163,19.4824,3.4961,2.5859,15.8277,14.1943,27.8223,55.1035a413.43,413.43,0,0,1,14.3047,77.2305c4.6123,57.5712,2.0229,104.29-7.916,142.8242-12.6758,49.1455-36.5752,81.7383-73.063,99.6416.0063-.0039-4.0943,2.0342-4.0943,2.0342l-17.4179,8.6552.935,19.3633,1.47,36.03,30.5171,3.0166c42.1885,3.8818,51.89,15.6387,58.0762,46.8086v-.001c3.5449,17.8643,3.9263,20.89,5.1,40.4561,0,0,18.7949,313.25,19.9263,332.1025h-71.1167c-.6211-13.3721-13.0752-281.2383-13.0752-281.2383-.9785-21.06-1.3907-26.4082-3.9239-40.4238-9.395-51.9932-41.916-65.832-67.5439-68.2861l-.2461-.0235-.2466-.0195a132.5945,132.5945,0,0,0-44.35,3.9756l-2.0049.5283-1.913.7988c-25.9756,10.8506-25.9756,36.8574-25.9756,50.83v333.8584h-84.5225a265.8851,265.8851,0,0,0,5.0371-51.4492q0-2.06-.0317-4.1211l.0034.35-.041-6.0039s-7.1377-808.2266-7.2705-823.2568Z" transform="translate(-1010.0132 -97.6777)"/><path class="cls-1" d="M3641.5811,1950.9141c-6.2774,0-25.38,0-36.2007,17.7617-5.9595,9.7822-6.4331,20.2744-6.4331,32.9756V2174.457c0,13.3428.373,23.53,5.2031,33.1455,9.293,18.5,27.7114,20.6055,33.7637,21.2979,54.3725,6.2158,89.6875-21.6768,100.5673-52.0772,22.023-61.5507,29.108-171.833-25.6279-213.0683-15.4375-11.626-25.8721-12.8408-46.0049-12.8408Zm25.2675,60c4.2906,0,7.335.0586,9.1065.1738.228.167.4824.3545.7978.5918,7.7554,5.8428,16.5367,23.9375,17.9151,57.1953q.1809,4.3579.18,8.8467c0,26.7353-4.7461,56.2138-12.8584,78.8867-1.8,5.0283-9.2271,11.374-23.042,12.8437v-158.538Z" transform="translate(-1010.0132 -97.6777)"/><path class="cls-6" d="M4996.748,2346.6816c3.8086,19.1836,4.37,23.6329,5.6231,44.4981l20.5264,342.1055c1.1767,19.6142-1.0147,21.7939-21.917,21.7939h-85.16c-20.4512,0-23.3437-2.5752-24.2265-21.583l-13.4024-288.2617c-.97-20.88-1.3184-24.5293-3.4775-36.4815-5.2823-29.2285-18.4668-41.6123-40.8838-43.7588a102.892,102.892,0,0,0-34.3369,3.0791c-6.5909,2.753-7.5381,8.3575-7.5381,23.1475V2733.248c0,19.6475-1.9571,21.8311-19.5586,21.8311H4668.0879c-20.9024,0-23.2949-1.3516-23.92-13.5127a47.0945,47.0945,0,0,1,.1328-6.3877,236.0481,236.0481,0,0,0,8.14-65.2051c-.0088-1.7851-.0224-3.73-.041-5.8574l-7.3369-830.9092c-.18-20.35,1.8857-22.6093,20.6523-22.6093h183.2178c20.9043,0,24.9824.1894,40.7842,1.9091,18.7559,2.0411,53.6543,16.9336,64.8125,25.1875,34.5117,25.5215,50.8145,111.878,54.1934,154.0577,7.4941,93.58,1.6669,223.0537-97.67,271.7939-1.2627.6191-2.4414,1.2031-3.8164,1.8965l.4043,9.9668q1.9982.2139,4.37.4316c53.3116,4.9043,75.5186,24.3838,84.7373,70.8408ZM4791.9551,2174.457c0,20.9014,1.2363,23.3643,12.374,24.6377,38.8936,4.4463,62.2793-13.8457,68.9131-32.38,19.7305-55.1386,23.834-149.416-15.4326-178.998-8.128-6.1211-10.9229-6.8027-27.9522-6.8027H4804.59c-11.371,0-12.6347,2.0742-12.6347,20.7373V2174.457Z" transform="translate(-1010.0132 -97.6777)"/><path class="cls-1" d="M4665.7148,1780.5977c-9.8378,0-26.3027,0-38.5224,12.3281-12.377,12.4863-12.2276,29.3721-12.1289,40.5459l7.3369,830.9092.0439,6.0576a206.0525,206.0525,0,0,1-7.1054,56.9179l-.708,2.6192-.2256,2.7041a76.3528,76.3528,0,0,0-.1963,10.4512c.3242,6.3046,1.3135,25.5654,19.56,35.873,9.9834,5.64,20.5214,6.0752,34.3193,6.0752h104.3086c9.95,0,26.6025,0,38.7236-13.5293,10.835-12.0928,10.835-27.2412,10.835-38.3018V2394.793a72.9266,72.9266,0,0,1,9.41.1035c6.3614.6172,10.6075,1.3789,13.8272,19.1914,1.8144,10.0459,2.083,12.1142,3.0312,32.5381L4861.627,2734.89c.4658,10.0469,1.247,26.8653,14.7871,38.9268,12.6425,11.2627,28.749,11.2627,39.4062,11.2627h85.16c11.4941,0,28.8642,0,41.2451-13.1455,9.2676-9.8408,10.9433-22.0488,10.9433-31.8535,0-3.169-.1748-6.086-.3251-8.5918l-20.5264-342.1055c-1.3311-22.1641-2.0772-28.0615-6.1436-48.54-8.084-40.7422-25.9238-66.8623-56.9179-81.4532,28.1015-26.49,48.1328-62.42,59.7431-107.4335,8.0332-31.1456,12.0205-66.1553,12.0205-106.0293q0-26.7774-2.3925-56.5694c-1.1055-13.7949-12.3526-135.9189-66.26-175.7842-15.874-11.7412-55.6338-28.3037-79.4053-30.8906-17.0107-1.8515-21.9492-2.0849-44.0293-2.0849Zm183.2178,60c19.7959,0,22.9531.1455,37.5381,1.7334,12.6006,1.371,42.874,14.05,50.2178,19.4814,3.497,2.5869,15.8281,14.1953,27.8242,55.1055a413.381,413.381,0,0,1,14.3057,77.23c4.61,57.5722,2.02,104.29-7.918,142.8242-12.6768,49.1455-36.5752,81.7392-73.0625,99.6416.0068-.0039-4.1094,2.042-4.1094,2.042l-17.4121,8.6533.9443,19.35,1.462,36.0381,30.5234,3.0166c42.1894,3.8818,51.8906,15.6387,58.0762,46.8076v.0029c3.5459,17.8614,3.9277,20.8868,5.1025,40.4541,0,0,18.7949,313.2491,19.9268,332.1016h-71.1172c-.6211-13.374-13.0752-281.2383-13.0752-281.2383-.9776-21.0517-1.39-26.3994-3.9229-40.4209-9.3974-51.9961-41.9189-65.8349-67.5468-68.289l-.2461-.0235-.2461-.0195a132.589,132.589,0,0,0-44.35,3.9756l-2.0039.5283-1.9131.7988c-25.9756,10.8506-25.9756,36.8574-25.9756,50.83v333.8584h-84.5225a266.0035,266.0035,0,0,0,5.0362-51.45q0-2.06-.0323-4.12l.0039.3174-.042-5.9717s-7.1367-808.2266-7.27-823.2568Zm177.2412,500.2451h0v0Z" transform="translate(-1010.0132 -97.6777)"/><path class="cls-1" d="M4804.59,1950.9141c-6.2773,0-25.38,0-36.2011,17.7607-5.96,9.7822-6.4336,20.2754-6.4336,32.9766V2174.457c0,13.3418.373,23.5293,5.2012,33.1436,9.2919,18.5019,27.7119,20.6074,33.7646,21.3,54.37,6.2158,89.6855-21.6758,100.5664-52.0762,22.0254-61.5508,29.1113-171.832-25.626-213.0683-15.4394-11.627-25.874-12.8418-46.0039-12.8418Zm25.2676,60c4.29,0,7.334.0586,9.1055.1738.2285.167.4834.3555.7988.5937,7.7539,5.8409,16.5352,23.9356,17.9141,57.1934.12,2.9053.18,5.8594.18,8.8467,0,26.7363-4.7461,56.2138-12.8594,78.8857-1.8,5.0283-9.2266,11.374-23.041,12.8447v-158.538Z" transform="translate(-1010.0132 -97.6777)"/></g><g id="lettering_overlay" data-name="lettering overlay"><path class="cls-7" d="M3366.0313,1336.874c.4658,14.6226,4.0356,16.416,20.4375,16.416h172.8037c20.9023,0,23.0781-2.3173,21.747-23.1816-23.1552-363.0972-15.0937-492.3281.6416-929.0547.753-20.8906-1.4863-23.2114-22.3886-23.2114H3230.0508c-18.3233,0-22.3037,3.6533-25.0557,22.9927L3110.2573,1066.85c-1.3764,9.6768-21.74,9.6768-23.2251,0L2984.8047,400.7979c-2.9473-19.2032-7.085-22.9556-25.3067-22.9556H2630.2734c-20.9023,0-22.9682,2.31-20.6679,23.0972,29.3276,265.0146,11.6308,613.998,5.6279,929.13-.3984,20.899,1.88,23.2207,22.7822,23.2207h172.8052c18.6626,0,20.7114-2.2441,20.4878-22.4492l-.0449-3.95-.5713-670.0927,27.32.1005c1.1245,3.0635,2.1816,8.7871,4.498,22.5454l109.7745,651.6968c3.1,18.3946,7.6689,22.1494,26.956,22.1494h198.8067c16.5751,0,22.3144-2.8144,25.6152-15.3164.0449-.1718.9385-5.2343,2.5361-14.3549L3342.002,657.7441c.0376-.1406.0737-.2763.11-.4106,1.12-4.1245,24.9385-1.188,26.9312-.7451l-3.0117,680.2856Z" transform="translate(-1010.0132 -97.6777)"/><path class="cls-7" d="M5639.1455,1353.29H5881.77c20.9024,0,23.0391-2.3154,21.3711-23.1572-21.7773-271.959-22.7-650.6-.08-921.397,1.7422-20.8374-.3886-23.1518-21.291-23.1518H5703.7119c-20.9023,0-23.0693,2.3174-21.6767,23.1748,11.18,167.26,32.6367,475.9844,30.49,535.1719l-33.28,25.9375q-.3-.3912-.6025-.8174c-1.8242-2.5586-2.63-5.086-8.0567-25.2715L5526.3408,407.1455c-4.582-17.0459-10.27-21.5615-27.1562-21.5615H5254.6963c-20.9033,0-23.1123,2.32-22.085,23.1992,19.8994,404.73,18.4131,499.6-.1211,921.3027-.917,20.8848,1.3028,23.2041,22.2061,23.2041h178.0576c20.9024,0,23.1318-2.32,22.2959-23.208-4.4639-111.6572-9.998-270.5561-16.7227-377.7422q-5.244-86.8578-18.46-172.9541l27.3457-18.6171q.29.6474.6094,1.4028,86.0214,282.6812,161.8427,568.3169c.0371.1347.0743.27.1114.4033,5.53,20.1592,8.4668,22.3984,29.3691,22.3984Z" transform="translate(-1010.0132 -97.6777)"/><path class="cls-7" d="M3675.3975,710.2686c.24-70.9844,18.125-173.7774,43.82-223.2764,61.5674-118.5947,244.3183-126.1318,402.8735-109.15,220.9712,23.6665,241.47,139.6284,250.0552,379.3408,4.4658,124.6885,23.9707,378.9976-58.0635,495.4663-104.4883,148.35-452.7866,161.9268-565.14,15.4829C3653.6,1143.8584,3674.915,852.97,3675.3975,710.2686ZM4108.93,666.6055c-.8369-30.4136-16.8081-95.3633-34.8374-118.4473-32.2036-41.2339-79.5059-25.2759-108.3833,15.4834-58.1714,82.1064-37.8086,375.8066-34.8374,415.8818,3.414,46.0284,13.9961,164.18,42.58,203.4512,40.6694,55.8745,93.7837,32.4649,116.1254-30.9673,35.8692-101.8442,20.4874-444.2026,19.3531-485.4018Z" transform="translate(-1010.0132 -97.6777)"/><path class="cls-7" d="M4445.8311,710.2686c.2392-70.9844,18.124-173.7774,43.8212-223.2764,61.5645-118.5947,244.3165-126.1318,402.8721-109.15,220.9707,23.6665,241.4707,139.6284,250.0547,379.3408,4.4668,124.6885,23.9717,378.9976-58.0625,495.4663-104.4883,148.35-452.7861,161.9268-565.1406,15.4829-95.3428-124.2739-74.0283-415.1626-73.5449-557.8637Zm433.5332-43.6631c-.8379-30.4136-16.81-95.3633-34.8389-118.4473-32.2022-41.2339-79.5059-25.2759-108.3828,15.4834-58.1719,82.1064-37.8086,375.8066-34.836,415.8818,3.4112,46.0284,13.9961,164.18,42.5782,203.4512,40.6689,55.8745,93.7841,32.4649,116.125-30.9673,35.8711-101.8442,20.4882-444.2026,19.3545-485.4018Z" transform="translate(-1010.0132 -97.6777)"/><path class="cls-7" d="M2831.5581,2755.0791h127.0327c18.0528,0,20.0381-2.3213,19.8672-23.2236l-7.36-898.0332c-.1714-20.8243-2.5928-23.2246-23.4151-23.2246h-69.6748c-20.9033,0-23.165,2.2246-22.6157,22.2627l14.2378,519.663c.1357,4.9805.229,8.9014.26,11.9873l-20.3046,8.5694c-11.8081-33.6963-59.1846-365.9121-84.3682-539.4981-3.001-20.6875-5.6567-22.9843-26.56-22.9843H2614.7915c-20.9023,0-23.0664,2.3183-21.6352,23.1767,19.6074,285.7236,8.1674,567.6143-.9493,898.0889-.5771,20.8945,1.6822,23.2158,22.5845,23.2158h89.2564c17.2138,0,19.0351-2.2246,18.2114-22.252l-21.356-519.6826c-.2861-6.9433-.4585-11.831-.4761-15.2529l18.8062-8.0107c.0234.0205.0464.039.0693.0576a4.2687,4.2687,0,0,1,.8833,1.4365q55.1184,264.62,90.274,532.8164a80.5308,80.5308,0,0,1-.2417,14.3906c-1.6968,14.8487.4365,16.4971,21.34,16.4971Z" transform="translate(-1010.0132 -97.6777)"/><path class="cls-7" d="M3412.42,2538.3145l7.27-705.211c.21-20.2558-2.0893-22.5058-22.9917-22.5058H3296.0566c-20.9023,0-23.2,2.246-22.9775,22.4589l7.2393,658.9629c.2295,20.9024.0156,24.5508-2.1446,36.5039-7.2075,39.8848-37.5722,58.3614-62.166,48.4981-10.51-4.2149-25.5679-23.2119-31.8154-50.7442-3.835-16.8974-4.26-21.0976-4.26-42V1833.0479c0-20.2042-2.3227-22.45-23.2251-22.45h-92.9c-20.9023,0-23.1806,2.2539-22.78,22.5332l14.581,740.0244c.4121,20.8984.8081,25.5254,3.9536,46.2627,15.4458,101.82,64.6617,148.1181,151.3374,158.8857,118.8379,14.7656,182.3194-62.2363,198.4473-193.66,2.5527-20.795,2.86-25.4288,3.0747-46.3291Z" transform="translate(-1010.0132 -97.6777)"/><path class="cls-7" d="M4031.5146,2498.5947v-30.2929c0-13.6309-2.3232-15.1456-23.2255-15.1456h-69.6748c-20.9024,0-23.2256,2.13-23.2256,21.3067v236.8c0,20.9023,2.1133,24.207,21.1357,33.0508,32.9151,15.3008,118.2193,34.4775,137.5684,33.99,104.1352-2.6191,148.8208-63.4316,170.3154-162.5742,22.1265-102.04,22.312-262.2822-38.7065-340.6318-33.2427-42.6856-91.4185-81.15-127.7378-123.8672-39.4917-46.4463-63.4663-103.6856-34.8374-154.8321,14.2475-25.4531,45.6128-37.0879,61.9326-15.4843,13.44,17.79,24.8613,64.3271,21.6753,89.8222-2.0889,16.7061.0019,18.5616,20.9043,18.5616h66.91c16.4234,0,18.2481-2.1075,18.2481-21.0713V1862.1572c0-20.9023-2.0435-24.3515-20.438-34.4863-63.2539-34.8467-139.0957-40.9912-188.5859-20.9453-107.4034,43.5049-122.9649,185.7139-116.125,315.0859,5.9477,112.4912,23.5351,175.3858,106.9716,244.2725,67.5049,55.7344,134.9663,102.5722,109.7945,192.9765-7.3892,26.5411-29.5591,58.3575-64.565,41.1875-12.9179-6.3369-24.8271-37.1191-26.7387-59.9306-1.437-17.1319-1.5953-21.3047-1.5953-41.7227Z" transform="translate(-1010.0132 -97.6777)"/><path class="cls-7" d="M4596.6543,1988.6562V1831.1426c0-18.4912-2.1338-20.5449-21.3418-20.5449h-241.875c-20.9023,0-23.1812,2.3222-22.7866,23.2226,4.7573,252.2266,14.435,693.5488,7.3042,756.749q-.2975,2.6354-.66,5.5752a555.9354,555.9354,0,0,1-9.1728,127.9912q.183,3.8731.4521,7.72c1.4756,20.9023,3.961,23.2236,24.8633,23.2236h241.875c19.208,0,21.3418-2.3213,21.3418-23.2236V2584.7637c0-20.9024-2.3223-23.2246-23.2246-23.2246H4472.7891c-20.9043,0-23.2266-2.3243-23.2266-23.2266V2391.2207c0-20.9023,2.3223-23.2236,23.2266-23.2236h92.8984c20.9023,0,23.2246-2.3223,23.2246-23.2246v-139.35c0-20.9024-2.3223-23.2266-23.2246-23.2266h-92.8984c-20.9043,0-23.2266-2.3213-23.2266-23.2236V2027.3652c0-20.9023,1.9551-23.123,19.5361-22.1992,0,0,72.36-1.6631,122.3467,9.4434,6.9414,8.332,5.209-5.0508,5.209-25.9532Z" transform="translate(-1010.0132 -97.6777)"/><path class="cls-7" d="M5077.5645,1832.6582q18.9579,449.0216.3906,898.4473-.0206.3911-.041.78c-1.15,20.8741,1.0468,23.1934,21.9482,23.1934l119.1846-1.166c17.7676,0,19.6094-.5469,19.4394-21.4492l-.0029-1.3907q-20.18-452.3349,1.3623-905.0888c2.332-15.0772-11.0361-14.0078-25.9551-14.0078l-114.0283-1.3789c-20.5146,0-23.0381,2.2353-22.2978,22.0605Z" transform="translate(-1010.0132 -97.6777)"/><path class="cls-7" d="M5579.7285,1988.6562V1831.1426c0-18.4912-2.1347-20.5449-21.3418-20.5449h-241.875c-20.9023,0-23.1816,2.3222-22.7871,23.2226,4.7578,252.2266,14.4356,693.5488,7.3027,756.749q-.2973,2.6354-.66,5.5752a555.8564,555.8564,0,0,1-9.1709,127.9912q.18,3.8731.45,7.72c1.4756,20.9023,3.9629,23.2236,24.8652,23.2236h241.875c19.2071,0,21.3418-2.3213,21.3418-23.2236V2584.7637c0-20.9024-2.3242-23.2246-23.2265-23.2246H5455.8613c-20.9023,0-23.2246-2.3243-23.2246-23.2266V2391.2207c0-20.9023,2.3223-23.2236,23.2246-23.2236H5548.76c20.9043,0,23.2265-2.3223,23.2265-23.2246v-139.35c0-20.9024-2.3222-23.2266-23.2265-23.2266h-92.8985c-20.9023,0-23.2246-2.3213-23.2246-23.2236V2027.3652c0-20.9023,1.9531-23.123,19.5362-22.1992,0,0,72.36-1.6631,122.3447,9.4434,6.9433,8.332,5.2109-5.0508,5.2109-25.9532Z" transform="translate(-1010.0132 -97.6777)"/><path class="cls-7" d="M5753.6914,2498.5947v-30.2929c0-13.6309-2.3242-15.1456-23.2266-15.1456H5660.791c-20.9023,0-23.2246,2.13-23.2246,21.3067v236.8c0,20.9023,2.1133,24.207,21.1348,33.0508,32.916,15.3008,118.2187,34.4775,137.5693,33.99,104.1358-2.6191,148.8193-63.4316,170.3154-162.5742,22.125-102.04,22.3125-262.2822-38.708-340.6318-33.2431-42.6856-91.417-81.15-127.7373-123.8672-39.4912-46.4463-63.4668-103.6856-34.8369-154.8321,14.2481-25.4531,45.6123-37.0879,61.9326-15.4843,13.44,17.79,24.8614,64.3271,21.6739,89.8222-2.0879,16.7061.0029,18.5616,20.9043,18.5616h66.9121c16.4228,0,18.248-2.1075,18.248-21.0713V1862.1572c0-20.9023-2.0439-24.3515-20.4385-34.4863-63.2529-34.8467-139.0957-40.9912-188.5869-20.9453-107.4023,43.5049-122.9648,185.7139-116.125,315.0859,5.9492,112.4912,23.5362,175.3858,106.9717,244.2725,67.5049,55.7344,134.9678,102.5722,109.7949,192.9765-7.39,26.5411-29.5586,58.3575-64.5644,41.1875-12.919-6.3369-24.8272-37.1191-26.7393-59.9306-1.4365-17.1319-1.5957-21.3047-1.5957-41.7227Z" transform="translate(-1010.0132 -97.6777)"/><path class="cls-7" d="M3833.7432,2346.6816c3.8066,19.1836,4.3681,23.6329,5.62,44.4981l20.5263,342.1055c1.1768,19.6142-1.0146,21.7939-21.9179,21.7939h-85.1572c-20.4532,0-23.3457-2.5752-24.2295-21.583l-13.4014-288.2617c-.97-20.88-1.3174-24.5293-3.4775-36.4815-5.2818-29.2285-18.4659-41.6123-40.8819-43.7588a102.9032,102.9032,0,0,0-34.3388,3.0791c-6.5909,2.753-7.5381,8.3575-7.5381,23.1475V2733.248c0,19.6475-1.9551,21.8311-19.5577,21.8311H3505.082c-20.9033,0-23.2954-1.3516-23.9218-13.5127a47.67,47.67,0,0,1,.1318-6.3877,235.94,235.94,0,0,0,8.1416-65.2051c-.0068-1.7851-.0215-3.73-.04-5.8574l-7.3379-830.9092c-.1792-20.35,1.8857-22.6093,20.6528-22.6093h183.2183c20.9023,0,24.98.1894,40.7846,1.9091,18.7534,2.0411,53.6519,16.9336,64.8111,25.1875,34.5122,25.5215,50.8125,111.878,54.1914,154.0577,7.4961,93.58,1.67,223.0537-97.669,271.7939-1.2627.6191-2.4394,1.2031-3.8164,1.8965l.4068,9.9668q1.9943.2139,4.37.4316c53.31,4.9043,75.5176,24.3838,84.7383,70.8408ZM3628.9473,2174.457c0,20.9014,1.2382,23.3643,12.375,24.6377,38.8925,4.4463,62.28-13.8457,68.9131-32.38,19.729-55.1386,23.8339-149.416-15.4336-178.998-8.127-6.1211-10.9229-6.8027-27.9532-6.8027h-25.2675c-11.37,0-12.6338,2.0742-12.6338,20.7373V2174.457Z" transform="translate(-1010.0132 -97.6777)"/><path class="cls-7" d="M4996.748,2346.6816c3.8086,19.1836,4.37,23.6329,5.6231,44.4981l20.5264,342.1055c1.1767,19.6142-1.0147,21.7939-21.917,21.7939h-85.16c-20.4512,0-23.3437-2.5752-24.2265-21.583l-13.4024-288.2617c-.97-20.88-1.3184-24.5293-3.4775-36.4815-5.2823-29.2285-18.4668-41.6123-40.8838-43.7588a102.892,102.892,0,0,0-34.3369,3.0791c-6.5909,2.753-7.5381,8.3575-7.5381,23.1475V2733.248c0,19.6475-1.9571,21.8311-19.5586,21.8311H4668.0879c-20.9024,0-23.2949-1.3516-23.92-13.5127a47.0945,47.0945,0,0,1,.1328-6.3877,236.0481,236.0481,0,0,0,8.14-65.2051c-.0088-1.7851-.0224-3.73-.041-5.8574l-7.3369-830.9092c-.18-20.35,1.8857-22.6093,20.6523-22.6093h183.2178c20.9043,0,24.9824.1894,40.7842,1.9091,18.7559,2.0411,53.6543,16.9336,64.8125,25.1875,34.5117,25.5215,50.8145,111.878,54.1934,154.0577,7.4941,93.58,1.6669,223.0537-97.67,271.7939-1.2627.6191-2.4414,1.2031-3.8164,1.8965l.4043,9.9668q1.9982.2139,4.37.4316c53.3116,4.9043,75.5186,24.3838,84.7373,70.8408ZM4791.9551,2174.457c0,20.9014,1.2363,23.3643,12.374,24.6377,38.8936,4.4463,62.2793-13.8457,68.9131-32.38,19.7305-55.1386,23.834-149.416-15.4326-178.998-8.128-6.1211-10.9229-6.8027-27.9522-6.8027H4804.59c-11.371,0-12.6347,2.0742-12.6347,20.7373V2174.457Z" transform="translate(-1010.0132 -97.6777)"/></g></svg>